<svg width="25" height="25" viewBox="0 0 25 25" fill="none" xmlns="http://www.w3.org/2000/svg">
<path fill-rule="evenodd" clip-rule="evenodd" d="M19.549 13.139C21.2537 13.139 22.6357 14.4966 22.6357 16.1711V19.2032C22.6357 20.8778 21.2537 22.2353 19.549 22.2353H16.4623C14.7576 22.2353 13.3756 20.8778 13.3756 19.2032V16.1711C13.3756 14.4966 14.7576 13.139 16.4623 13.139H19.549ZM8.23113 13.139C9.93586 13.139 11.3178 14.4966 11.3178 16.1711V19.2032C11.3178 20.8778 9.93586 22.2353 8.23113 22.2353H5.14443C3.4397 22.2353 2.05774 20.8778 2.05774 19.2032V16.1711C2.05774 14.4966 3.4397 13.139 5.14443 13.139H8.23113ZM19.549 15.1604H16.4623C15.8941 15.1604 15.4334 15.6129 15.4334 16.1711V19.2032C15.4334 19.7614 15.8941 20.2139 16.4623 20.2139H19.549C20.1172 20.2139 20.5779 19.7614 20.5779 19.2032V16.1711C20.5779 15.6129 20.1172 15.1604 19.549 15.1604ZM8.23113 15.1604H5.14443C4.57619 15.1604 4.11554 15.6129 4.11554 16.1711V19.2032C4.11554 19.7614 4.57619 20.2139 5.14443 20.2139H8.23113C8.79937 20.2139 9.26003 19.7614 9.26003 19.2032V16.1711C9.26003 15.6129 8.79937 15.1604 8.23113 15.1604ZM8.23113 2.02139C9.93586 2.02139 11.3178 3.3789 11.3178 5.05348V8.08556C11.3178 9.76014 9.93586 11.1176 8.23113 11.1176H5.14443C3.4397 11.1176 2.05774 9.76014 2.05774 8.08556V5.05348C2.05774 3.3789 3.4397 2.02139 5.14443 2.02139H8.23113ZM19.549 2.02139C21.2537 2.02139 22.6357 3.3789 22.6357 5.05348V8.08556C22.6357 9.76014 21.2537 11.1176 19.549 11.1176H16.4623C14.7576 11.1176 13.3756 9.76014 13.3756 8.08556V5.05348C13.3756 3.3789 14.7576 2.02139 16.4623 2.02139H19.549ZM8.23113 4.04278H5.14443C4.57619 4.04278 4.11554 4.49529 4.11554 5.05348V8.08556C4.11554 8.64376 4.57619 9.09626 5.14443 9.09626H8.23113C8.79937 9.09626 9.26003 8.64376 9.26003 8.08556V5.05348C9.26003 4.49529 8.79937 4.04278 8.23113 4.04278ZM19.549 4.04278H16.4623C15.8941 4.04278 15.4334 4.49529 15.4334 5.05348V8.08556C15.4334 8.64376 15.8941 9.09626 16.4623 9.09626H19.549C20.1172 9.09626 20.5779 8.64376 20.5779 8.08556V5.05348C20.5779 4.49529 20.1172 4.04278 19.549 4.04278Z" fill="#999999"/>
</svg>
