<svg width="25" height="25" viewBox="0 0 25 25" fill="none" xmlns="http://www.w3.org/2000/svg">
<path fill-rule="evenodd" clip-rule="evenodd" d="M21.6067 16.7474C22.1343 16.7474 22.5692 17.1376 22.6287 17.6402L22.6356 17.7581V19.7795C22.6356 21.3942 21.3506 22.7142 19.7303 22.8064L19.5489 22.8116H5.14431C3.50046 22.8116 2.15674 21.5493 2.06286 19.9576L2.05762 19.7795V17.7581C2.05762 17.1999 2.51827 16.7474 3.08652 16.7474C3.61417 16.7474 4.04906 17.1376 4.10849 17.6402L4.11541 17.7581V19.7795C4.11541 20.2978 4.51261 20.725 5.02432 20.7834L5.14431 20.7902H19.5489C20.0765 20.7902 20.5114 20.4 20.5709 19.8973L20.5778 19.7795V17.7581C20.5778 17.1999 21.0384 16.7474 21.6067 16.7474ZM12.1938 2.60879L12.254 2.6017L12.3466 2.59766L12.424 2.60047L12.5531 2.61811L12.6678 2.64793L12.782 2.69233L12.8824 2.74521L12.9901 2.81969L13.0741 2.89368L16.1608 5.92577C16.5626 6.32047 16.5626 6.96041 16.1608 7.35511C15.759 7.74981 15.1076 7.74981 14.7057 7.35511L13.3755 6.04817V15.7367C13.3755 16.2949 12.9148 16.7474 12.3466 16.7474C11.7784 16.7474 11.3177 16.2949 11.3177 15.7367V6.04817L9.98744 7.35511C9.58563 7.74981 8.93417 7.74981 8.53236 7.35511C8.13055 6.96041 8.13055 6.32047 8.53236 5.92577L11.6191 2.89368C11.6555 2.85791 11.6939 2.82538 11.7341 2.79609L11.8485 2.72366L11.9645 2.66964L12.0729 2.63388L12.1938 2.60879Z" fill="#999999"/>
</svg>
