<svg width="25" height="25" viewBox="0 0 25 25" fill="none" xmlns="http://www.w3.org/2000/svg">
<path fill-rule="evenodd" clip-rule="evenodd" d="M14.4042 2.76172C14.6771 2.76172 14.9388 2.8682 15.1318 3.05774L20.2762 8.11122C20.4692 8.30076 20.5776 8.55784 20.5776 8.82589V19.9435C20.5776 21.6181 19.1956 22.9756 17.4909 22.9756H7.20193C5.49719 22.9756 4.11523 21.6181 4.11523 19.9435V5.7938C4.11523 4.11923 5.49719 2.76172 7.20193 2.76172H14.4042ZM12.3454 4.78311H7.20193C6.63368 4.78311 6.17303 5.23561 6.17303 5.7938V19.9435C6.17303 20.5017 6.63368 20.9542 7.20193 20.9542H17.4909C18.0592 20.9542 18.5198 20.5017 18.5198 19.9435V10.8473H13.3753C12.8477 10.8473 12.4128 10.4571 12.3533 9.95445L12.3464 9.83659L12.3454 4.78311ZM18.0938 8.82589L14.4032 5.20154L14.4042 8.82589H18.0938Z" fill="#999999"/>
</svg>
