<svg width="25" height="25" viewBox="0 0 25 25" fill="none" xmlns="http://www.w3.org/2000/svg">
<path fill-rule="evenodd" clip-rule="evenodd" d="M9.83063 10.1228C10.1169 9.9354 10.2888 9.61983 10.2888 9.2819V5.23912C10.2888 3.56454 8.90684 2.20703 7.20211 2.20703H3.08652C2.51827 2.20703 2.05762 2.65953 2.05762 3.21773C2.05762 13.2652 11.3783 22.4209 21.6067 22.4209C22.1749 22.4209 22.6356 21.9684 22.6356 21.4102V17.3675C22.6356 15.6929 21.2536 14.3354 19.5489 14.3354H15.4333C15.0893 14.3354 14.768 14.5043 14.5772 14.7854L12.6168 17.674C10.4816 16.3178 8.61092 14.5266 7.172 12.4645L6.89002 12.0486L9.83063 10.1228ZM15.9839 16.3568H19.5489C20.1171 16.3568 20.5778 16.8093 20.5778 17.3675V20.3645C18.5846 20.229 16.6393 19.7054 14.825 18.875L14.4086 18.6779L15.9839 16.3568ZM4.15109 4.22842H7.20211C7.77035 4.22842 8.231 4.68093 8.231 5.23912V8.74099L5.86802 10.2884C4.90646 8.39092 4.29962 6.337 4.15109 4.22842Z" fill="#999999"/>
</svg>
